HIERARCHY
ROOT Hips
{
	OFFSET	0.00	0.00	0.00
	CHANNELS 6 Xposition Yposition Zposition Zrotation Xrotation Yrotation
	JOINT LeftUpLeg
	{
		OFFSET	 0.126116	-0.065224	 0.014019
		CHANNELS 3 Zrotation Xrotation Yrotation
		JOINT LeftLeg
		{
			OFFSET	 0.000000	 0.569914	 0.000000
			CHANNELS 3 Zrotation Xrotation Yrotation
			JOINT LeftFoot
			{
				OFFSET	 0.000000	 0.544423	 0.000000
				CHANNELS 3 Zrotation Xrotation Yrotation
				JOINT LeftToeBase
				{
					OFFSET	 0.000000	 0.207117	 0.000000
					CHANNELS 3 Zrotation Xrotation Yrotation
					End Site
					{
						OFFSET	 0.000000	 0.207117	 0.000000
					}
				}
			}
		}
	}
	JOINT RightUpLeg
	{
		OFFSET	-0.124023	-0.065224	 0.008373
		CHANNELS 3 Zrotation Xrotation Yrotation
		JOINT RightLeg
		{
			OFFSET	 0.000000	 0.570047	 0.000000
			CHANNELS 3 Zrotation Xrotation Yrotation
			JOINT RightFoot
			{
				OFFSET	 0.000000	 0.544354	 0.000000
				CHANNELS 3 Zrotation Xrotation Yrotation
				JOINT RightToeBase
				{
					OFFSET	 0.000000	 0.207540	 0.000000
					CHANNELS 3 Zrotation Xrotation Yrotation
					End Site
					{
						OFFSET	 0.000000	 0.207540	 0.000000
					}
				}
			}
		}
	}
	JOINT Spine
	{
		OFFSET	 0.000184	 0.117403	 0.007763
		CHANNELS 3 Zrotation Xrotation Yrotation
		JOINT Spine1
		{
			OFFSET	 0.000000	 0.137269	 0.000000
			CHANNELS 3 Zrotation Xrotation Yrotation
			JOINT Spine2
			{
				OFFSET	 0.000000	 0.156879	 0.000000
				CHANNELS 3 Zrotation Xrotation Yrotation
				JOINT LeftShoulder
				{
					OFFSET	 0.080501	 0.160143	 0.002496
					CHANNELS 3 Zrotation Xrotation Yrotation
					JOINT LeftArm
					{
						OFFSET	 0.000000	 0.164363	 0.000000
						CHANNELS 3 Zrotation Xrotation Yrotation
						JOINT LeftForeArm
						{
							OFFSET	 0.000000	 0.364576	 0.000000
							CHANNELS 3 Zrotation Xrotation Yrotation
							JOINT LeftHand
							{
								OFFSET	 0.000000	 0.360812	 0.000000
								CHANNELS 3 Zrotation Xrotation Yrotation
								JOINT LeftHandIndex1
								{
									OFFSET	 0.000000	 0.086006	 0.000000
									CHANNELS 3 Zrotation Xrotation Yrotation
									JOINT LeftHandIndex2
									{
										OFFSET	 0.000000	 0.047237	 0.000000
										CHANNELS 3 Zrotation Xrotation Yrotation
										JOINT LeftHandIndex3
										{
											OFFSET	-0.004284	 0.038165	 0.000551
											CHANNELS 3 Zrotation Xrotation Yrotation
											End Site
											{
												OFFSET	-0.004284	 0.038165	 0.000551
											}
										}
									}
								}
							}
						}
					}
				}
				JOINT Neck
				{
					OFFSET	 0.000000	 0.176489	 0.000000
					CHANNELS 3 Zrotation Xrotation Yrotation
					JOINT Head
					{
						OFFSET	 0.000000	 0.077941	 0.001747
						CHANNELS 3 Zrotation Xrotation Yrotation
						End Site
						{
							OFFSET	 0.000000	 0.077941	 0.001747
						}
					}
				}
				JOINT RightShoulder
				{
					OFFSET	-0.080363	 0.159706	-0.000306
					CHANNELS 3 Zrotation Xrotation Yrotation
					JOINT RightArm
					{
						OFFSET	 0.000000	 0.164196	 0.000000
						CHANNELS 3 Zrotation Xrotation Yrotation
						JOINT RightForeArm
						{
							OFFSET	 0.000000	 0.365611	 0.000000
							CHANNELS 3 Zrotation Xrotation Yrotation
							JOINT RightHand
							{
								OFFSET	 0.000000	 0.360648	 0.000000
								CHANNELS 3 Zrotation Xrotation Yrotation
								JOINT RightHandIndex1
								{
									OFFSET	 0.000000	 0.069977	 0.000000
									CHANNELS 3 Zrotation Xrotation Yrotation
									JOINT RightHandIndex2
									{
										OFFSET	 0.000000	 0.052305	 0.000000
										CHANNELS 3 Zrotation Xrotation Yrotation
										JOINT RightHandIndex3
										{
											OFFSET	 0.009002	 0.042196	 0.000782
											CHANNELS 3 Zrotation Xrotation Yrotation
											End Site
											{
												OFFSET	 0.009002	 0.042196	 0.000782
											}
										}
									}
								}
							}
						}
					}
				}
			}
		}
	}
}
MOTION
Frames:    9
Frame Time: 0.03333334
 0.468455	 1.180045	 0.593637	-3.801150	-36.861200	-175.593600	 171.198700	 66.003720	-10.828560	 11.576950	-37.068150	 23.680400	 57.822460	 60.698720	-42.187280	 1.292262	 28.425850	-2.713146	 150.507200	 68.413300	 38.072480	-10.191120	-42.630480	-19.515600	-58.384680	 56.199880	 41.502160	-1.288183	 28.361890	 2.710176	 6.675171	 9.028524	-28.057800	 1.156242	 4.828058	 1.645769	-1.099604	 11.486990	-6.543044	-120.926500	 21.294740	 100.911600	 56.188270	 6.399922	-3.039157	 9.492269	 1.177575	 13.161280	 26.857150	-16.043230	 7.167998	-6.580301	 5.266122	 0.000000	 0.000000	 0.000000	 0.000000	 0.000000	 0.000000	 0.000000	 7.595889	 40.002930	-4.418377	-2.754985	-42.099100	-1.812925	 129.105500	 23.743910	-105.085500	-35.653610	 12.879730	 13.631290	-40.942240	 3.194627	-23.212600	 7.939284	-24.382740	-3.247553	 15.208500	 5.323790	 0.000000	 0.000000	 0.000000	 0.000000	 0.000000	 0.000000	 0.000000
 0.475220	 1.122313	 0.602412	-5.951732	-39.700370	-176.455400	 161.228300	 76.502490	-1.299103	 18.153070	-49.546400	 28.490010	 67.821270	 62.520380	-52.657590	 1.292262	 28.425850	-2.713146	 126.645100	 77.456970	 57.384520	-15.791600	-54.767140	-24.123060	-64.509930	 56.048150	 48.358460	-1.288183	 28.361890	 2.710176	 5.077827	 10.391860	-16.506760	 0.961764	 6.658852	 1.792027	-2.663111	 10.883510	-9.565099	-125.881900	 25.997110	 104.777700	 54.946650	 1.061772	 5.219407	 10.444990	-0.017749	-1.803690	 32.317010	-9.063154	 12.509830	-6.580301	 5.266122	 0.000000	 0.000000	 0.000000	 0.000000	 0.000000	 0.000000	 0.000000	 9.345217	 41.597940	-4.833066	-4.212210	-46.037990	-2.611928	 130.736600	 26.495240	-107.280100	-41.459290	 6.760527	 12.274870	-40.555370	 2.957815	-16.335150	 14.210310	-31.282660	-4.849461	 15.208500	 5.323790	 0.000000	 0.000000	 0.000000	 0.000000	 0.000000	 0.000000	 0.000000
 0.479486	 1.046880	 0.611883	-7.042416	-41.003480	-177.414300	 121.510800	 85.641530	 38.855900	 30.781590	-62.566150	 38.622310	 78.660840	 63.947270	-64.385000	 1.292262	 28.425850	-2.713146	 72.152290	 82.415500	 109.567400	-27.510360	-67.407090	-34.735410	-72.050850	 56.759550	 57.203060	-1.288183	 28.361890	 2.710176	 2.319280	 11.699730	-1.063028	 1.471495	 8.691214	 1.575989	-3.740175	 10.334360	-11.810010	-127.144100	 28.805100	 106.797300	 55.416730	-0.992371	 8.558113	 10.868410	-2.507513	-24.595410	 31.091150	 6.090230	 18.228270	-6.580301	 5.266122	 0.000000	 0.000000	 0.000000	 0.000000	 0.000000	 0.000000	 0.000000	 10.483750	 42.403430	-4.934021	-5.562128	-48.353500	-3.327323	 128.796200	 28.423270	-107.756500	-48.580590	 2.389981	 10.930610	-38.645430	 2.862155	-12.505300	 20.505730	-33.421010	-4.658189	 15.208500	 5.323790	 0.000000	 0.000000	 0.000000	 0.000000	 0.000000	 0.000000	 0.000000
 0.479150	 0.984962	 0.622800	-7.931621	-41.149640	-178.353100	 34.029630	 84.636560	 126.284400	 46.305880	-69.825680	 52.786060	 84.597140	 64.198840	-71.281170	 1.292262	 28.425850	-2.713146	 30.234970	 79.484250	 149.396900	-44.756570	-74.731190	-51.799880	-75.342900	 56.377780	 62.010970	-1.288183	 28.361890	 2.710176	-1.140994	 11.857350	 16.109730	 2.176417	 10.988730	 1.101116	-4.735527	 9.142479	-13.342600	-126.398100	 32.188910	 108.498200	 54.252780	-2.803166	 8.637203	 10.561890	-4.786787	-42.808120	 28.572210	 15.976940	 23.877560	-6.580301	 5.266122	 0.000000	 0.000000	 0.000000	 0.000000	 0.000000	 0.000000	 0.000000	 11.122510	 42.281230	-4.869258	-6.408437	-50.227100	-3.875395	 126.126300	 30.673900	-108.005200	-52.611780	-0.116008	 7.041676	-34.050620	 1.912209	-3.188200	 21.317490	-34.663980	-2.736913	 15.208500	 5.323790	 0.000000	 0.000000	 0.000000	 0.000000	 0.000000	 0.000000	 0.000000
 0.475410	 0.963382	 0.630699	-8.837364	-40.359500	-179.116300	 26.284240	 83.719240	 132.782600	 51.792470	-71.320390	 57.455790	 86.357930	 64.732890	-73.097260	 1.292262	 28.425850	-2.713146	 24.026910	 78.161900	 153.843000	-53.348960	-76.527340	-60.343560	-74.752560	 56.115160	 62.302010	-1.288183	 28.361890	 2.710176	-4.173060	 10.961260	 32.577950	 2.602541	 12.573530	 0.926214	-5.564416	 7.556906	-14.435720	-124.608200	 34.157730	 108.937200	 54.265180	-1.978113	 9.832888	 10.582180	-6.035001	-50.476810	 32.052600	 18.347180	 24.505740	-6.580301	 5.266122	 0.000000	 0.000000	 0.000000	 0.000000	 0.000000	 0.000000	 0.000000	 11.799660	 41.162460	-4.988223	-7.531354	-51.607820	-4.504848	 124.260400	 32.198920	-108.122400	-57.159200	 0.292751	 3.557036	-28.446940	 1.260665	 2.041099	 21.208260	-39.318390	-2.407023	 15.208500	 5.323790	 0.000000	 0.000000	 0.000000	 0.000000	 0.000000	 0.000000	 0.000000
 0.469281	 0.987482	 0.633206	-9.243784	-38.346080	-179.334700	 65.658200	 86.780160	 91.921880	 42.998060	-68.716900	 47.671230	 84.469890	 66.250960	-70.519580	 1.292262	 28.425850	-2.713146	 41.714420	 80.610960	 136.164200	-42.459680	-74.107250	-48.983800	-71.478360	 56.818570	 58.990090	-1.288183	 28.361890	 2.710176	-5.747755	 9.657306	 44.038520	 3.053449	 14.041120	 0.906860	-5.837268	 5.888328	-15.449320	-124.169500	 32.868760	 108.166600	 57.045790	-1.849718	 12.551050	 11.255730	-6.476111	-50.405720	 40.860440	 16.018490	 17.514310	-6.580301	 5.266122	 0.000000	 0.000000	 0.000000	 0.000000	 0.000000	 0.000000	 0.000000	 10.223200	 35.876590	-4.368389	-6.144276	-46.701210	-4.228476	 124.651400	 31.211680	-107.725500	-59.273110	 1.276024	 4.553378	-29.460970	 1.500360	 1.714243	 21.657780	-47.379940	-2.437395	 15.208500	 5.323790	 0.000000	 0.000000	 0.000000	 0.000000	 0.000000	 0.000000	 0.000000
 0.455944	 1.062562	 0.629389	-7.400883	-33.424890	-178.358200	 166.349000	 78.253350	-9.740794	 27.055360	-59.712660	 31.884970	 75.575230	 67.729670	-60.967830	 1.292262	 28.425850	-2.713146	 120.746000	 78.727340	 61.560150	-24.012820	-64.717640	-32.237750	-66.564430	 57.013530	 53.882370	-1.288183	 28.361890	 2.710176	-5.166588	 8.605162	 46.791620	 2.948984	 12.666340	 1.734441	-4.794536	 3.357661	-16.079320	-122.040200	 29.033340	 105.296400	 57.017100	 6.828189	 6.681141	 12.070260	-6.723098	-49.104690	 45.092990	 19.626660	 13.488220	-6.580301	 5.266122	 0.000000	 0.000000	 0.000000	 0.000000	 0.000000	 0.000000	 0.000000	 3.926566	 21.680540	-1.828128	-2.178238	-33.475680	-4.011928	 124.561600	 27.860710	-105.878400	-50.382720	 7.143050	 0.005301	-45.298650	 1.514981	 4.639359	 20.468140	-51.595250	-5.155748	 15.208500	 5.323790	 0.000000	 0.000000	 0.000000	 0.000000	 0.000000	 0.000000	 0.000000
 0.446324	 1.133530	 0.614993	-4.802595	-27.649030	-176.834400	 175.135000	 64.350530	-18.520660	 17.747680	-48.927540	 23.819320	 63.793290	 67.937610	-49.831530	 1.292262	 28.425850	-2.713146	 150.043100	 66.104770	 38.319510	-14.965940	-53.340350	-24.940990	-60.887640	 57.654630	 48.690010	-1.288183	 28.361890	 2.710176	-2.702136	 7.834111	 38.482380	 3.139034	 13.201980	 2.447148	-3.384084	-1.428915	-16.454790	-113.497800	 22.314420	 99.597190	 61.963610	 19.497650	-4.779682	 12.967980	-6.667358	-46.347720	 50.237680	 21.972590	 10.734720	-6.580301	 5.266122	 0.000000	 0.000000	 0.000000	 0.000000	 0.000000	 0.000000	 0.000000	 0.235433	 0.035698	-0.982110	-0.087901	-13.966760	-4.308530	 119.501600	 22.912570	-101.827000	-46.395880	 15.072760	-1.029724	-60.450890	 1.871485	 4.909224	 16.373130	-54.341760	-10.473800	 15.208500	 5.323790	 0.000000	 0.000000	 0.000000	 0.000000	 0.000000	 0.000000	 0.000000
 0.443201	 1.195047	 0.580190	-1.558854	-20.555270	-174.775600	 179.028700	 48.730340	-20.850620	 11.914670	-37.852290	 19.553890	 50.695960	 67.006720	-38.918580	 1.292262	 28.425850	-2.713146	 161.526300	 49.541440	 34.186000	-9.397547	-40.348550	-15.719100	-48.769490	 62.933360	 36.617680	-1.288183	 28.361890	 2.710176	 0.466553	 5.731906	 20.164400	 1.733734	 9.751972	 3.591035	-0.610023	-4.682620	-16.374010	-117.726400	 16.973770	 98.129120	 60.870420	 30.090680	 0.642845	 14.083960	-5.990338	-40.475870	 55.725140	 19.544160	 11.920370	-6.580301	 5.266122	 0.000000	 0.000000	 0.000000	 0.000000	 0.000000	 0.000000	 0.000000	-1.883617	-2.412716	-1.143125	 0.739567	-10.427410	-4.641642	 122.380100	 16.769080	-99.477260	-37.705380	 19.491980	-3.268199	-77.574240	 2.797776	 1.849856	 19.514340	-49.694420	-11.900550	 15.208500	 5.323790	 0.000000	 0.000000	 0.000000	 0.000000	 0.000000	 0.000000	 0.000000
